<svg width="1920" height="650" viewBox="0 0 1920 650" fill="none" xmlns="http://www.w3.org/2000/svg">
<path d="M0 0H1920V548.975C1170.28 685.039 749.965 682.304 0 548.975L0 0Z" fill="#6C48F0"/>
<path d="M423.07 249.359C423.403 248.515 424.597 248.515 424.93 249.359L426.669 253.768C426.771 254.025 426.975 254.229 427.232 254.331L431.641 256.07C432.485 256.403 432.485 257.597 431.641 257.93L427.232 259.669C426.975 259.771 426.771 259.975 426.669 260.232L424.93 264.641C424.597 265.485 423.403 265.485 423.07 264.641L421.331 260.232C421.229 259.975 421.025 259.771 420.768 259.669L416.359 257.93C415.515 257.597 415.515 256.403 416.359 256.07L420.768 254.331C421.025 254.229 421.229 254.025 421.331 253.768L423.07 249.359Z" fill="white"/>
<path opacity="0.5" d="M1347.07 533.359C1347.4 532.515 1348.6 532.515 1348.93 533.359L1350.39 537.05C1350.49 537.308 1350.69 537.512 1350.95 537.614L1354.64 539.07C1355.49 539.403 1355.49 540.597 1354.64 540.93L1350.95 542.386C1350.69 542.488 1350.49 542.692 1350.39 542.95L1348.93 546.641C1348.6 547.485 1347.4 547.485 1347.07 546.641L1345.61 542.95C1345.51 542.692 1345.31 542.488 1345.05 542.386L1341.36 540.93C1340.51 540.597 1340.51 539.403 1341.36 539.07L1345.05 537.614C1345.31 537.512 1345.51 537.308 1345.61 537.05L1347.07 533.359Z" fill="white"/>
<path d="M1480.07 182.359C1480.4 181.515 1481.6 181.515 1481.93 182.359L1483.39 186.05C1483.49 186.308 1483.69 186.512 1483.95 186.614L1487.64 188.07C1488.49 188.403 1488.49 189.597 1487.64 189.93L1483.95 191.386C1483.69 191.488 1483.49 191.692 1483.39 191.95L1481.93 195.641C1481.6 196.485 1480.4 196.485 1480.07 195.641L1478.61 191.95C1478.51 191.692 1478.31 191.488 1478.05 191.386L1474.36 189.93C1473.51 189.597 1473.51 188.403 1474.36 188.07L1478.05 186.614C1478.31 186.512 1478.51 186.308 1478.61 186.05L1480.07 182.359Z" fill="white"/>
<circle cx="1136" cy="143" r="5.5" stroke="white"/>
<circle cx="585" cy="480" r="3" fill="white"/>
<circle cx="719" cy="152" r="3" fill="white"/>
</svg>
