<svg width="375" height="506" viewBox="0 0 375 506" fill="none" xmlns="http://www.w3.org/2000/svg">
<path d="M-113 505.5H487V137.76C351.076 2.20758 20.5 4.62473 -113 137.76V505.5Z" fill="#0E1B2C"/>
<g filter="url(#filter0_d_0_1)">
<path d="M53.0314 81.0086C54.3481 82.3305 56.483 82.3305 57.7998 81.0086C59.1165 79.6867 59.1165 77.5436 57.7998 76.2217C56.483 74.8998 54.3481 74.8998 53.0314 76.2217C51.7146 77.5436 51.7146 79.6867 53.0314 81.0086Z" fill="url(#paint0_linear_0_1)"/>
<path d="M69.244 76.2217C70.5608 77.5436 72.6957 77.5436 74.0124 76.2217C75.3292 74.8998 75.3292 72.7567 74.0124 71.4348L34.7207 31.9907C33.4039 30.6688 31.269 30.6688 29.9523 31.9907C28.6355 33.3126 28.6355 35.4557 29.9523 36.7776L69.244 76.2217Z" fill="url(#paint1_linear_0_1)"/>
<path d="M60.0886 46.7343C61.4054 48.0562 63.5403 48.0562 64.857 46.7343C66.1738 45.4125 66.1738 43.2693 64.857 41.9474L52.2684 29.31C50.9517 27.9881 48.8168 27.9881 47.5 29.31C46.1832 30.6319 46.1832 32.775 47.5 34.0969L60.0886 46.7343Z" fill="url(#paint2_linear_0_1)"/>
<path d="M42.1594 65.3076C40.8426 66.6294 38.7077 66.6294 37.391 65.3076L24.8024 52.6702C23.4856 51.3483 23.4856 49.2051 24.8024 47.8832C26.1191 46.5614 28.254 46.5614 29.5708 47.8832L42.1594 60.5207C43.4761 61.8425 43.4761 63.9857 42.1594 65.3076Z" fill="url(#paint3_linear_0_1)"/>
<path d="M67.9088 54.5849C69.2256 55.9068 71.3605 55.9068 72.6772 54.5849C73.994 53.2631 73.994 51.1199 72.6772 49.798C71.3605 48.4762 69.2256 48.4762 67.9088 49.798C66.5921 51.1199 66.5921 53.2631 67.9088 54.5849Z" fill="url(#paint4_linear_0_1)"/>
<path d="M49.9796 73.1581C48.6628 74.48 46.5279 74.48 45.2112 73.1581C43.8944 71.8363 43.8944 69.6931 45.2112 68.3712C46.5279 67.0494 48.6628 67.0494 49.9796 68.3712C51.2963 69.6931 51.2963 71.8363 49.9796 73.1581Z" fill="url(#paint5_linear_0_1)"/>
<path d="M25.756 27.7783C24.4392 29.1002 22.3043 29.1002 20.9876 27.7783C19.6708 26.4564 19.6708 24.3133 20.9876 22.9914C22.3043 21.6695 24.4392 21.6695 25.756 22.9914C27.0727 24.3133 27.0727 26.4564 25.756 27.7783Z" fill="url(#paint6_linear_0_1)"/>
</g>
<defs>
<filter id="filter0_d_0_1" x="-10" y="0" width="115" height="120" filterUnits="userSpaceOnUse" color-interpolation-filters="sRGB">
<feFlood flood-opacity="0" result="BackgroundImageFix"/>
<feColorMatrix in="SourceAlpha" type="matrix" values="0 0 0 0 0 0 0 0 0 0 0 0 0 0 0 0 0 0 127 0" result="hardAlpha"/>
<feOffset dy="8"/>
<feGaussianBlur stdDeviation="15"/>
<feColorMatrix type="matrix" values="0 0 0 0 0 0 0 0 0 0 0 0 0 0 0 0 0 0 0.25 0"/>
<feBlend mode="normal" in2="BackgroundImageFix" result="effect1_dropShadow_0_1"/>
<feBlend mode="normal" in="SourceGraphic" in2="effect1_dropShadow_0_1" result="shape"/>
</filter>
<linearGradient id="paint0_linear_0_1" x1="95.6818" y1="93.9084" x2="7.06999" y2="98.9443" gradientUnits="userSpaceOnUse">
<stop stop-color="#FF6A56"/>
<stop offset="1" stop-color="#FDAF4D"/>
</linearGradient>
<linearGradient id="paint1_linear_0_1" x1="95.6818" y1="93.9084" x2="7.06999" y2="98.9443" gradientUnits="userSpaceOnUse">
<stop stop-color="#FF6A56"/>
<stop offset="1" stop-color="#FDAF4D"/>
</linearGradient>
<linearGradient id="paint2_linear_0_1" x1="95.6818" y1="93.9084" x2="7.06999" y2="98.9443" gradientUnits="userSpaceOnUse">
<stop stop-color="#FF6A56"/>
<stop offset="1" stop-color="#FDAF4D"/>
</linearGradient>
<linearGradient id="paint3_linear_0_1" x1="95.6818" y1="93.9084" x2="7.06999" y2="98.9443" gradientUnits="userSpaceOnUse">
<stop stop-color="#FF6A56"/>
<stop offset="1" stop-color="#FDAF4D"/>
</linearGradient>
<linearGradient id="paint4_linear_0_1" x1="95.6818" y1="93.9084" x2="7.06999" y2="98.9443" gradientUnits="userSpaceOnUse">
<stop stop-color="#FF6A56"/>
<stop offset="1" stop-color="#FDAF4D"/>
</linearGradient>
<linearGradient id="paint5_linear_0_1" x1="95.6818" y1="93.9084" x2="7.06999" y2="98.9443" gradientUnits="userSpaceOnUse">
<stop stop-color="#FF6A56"/>
<stop offset="1" stop-color="#FDAF4D"/>
</linearGradient>
<linearGradient id="paint6_linear_0_1" x1="95.6818" y1="93.9084" x2="7.06999" y2="98.9443" gradientUnits="userSpaceOnUse">
<stop stop-color="#FF6A56"/>
<stop offset="1" stop-color="#FDAF4D"/>
</linearGradient>
</defs>
</svg>
